<svg xmlns="http://www.w3.org/2000/svg" version="1.1" xmlns:xlink="http://www.w3.org/1999/xlink" xmlns:svgjs="http://svgjs.com/svgjs" width="1440" height="560" preserveAspectRatio="none" viewBox="0 0 1440 560"><g mask="url(&quot;#SvgjsMask1826&quot;)" fill="none"><rect width="1440" height="560" x="0" y="0" fill="url(#SvgjsRadialGradient1827)"></rect><path d="M615.47 555.68L638.06 555.68L638.06 602.17L615.47 602.17z" stroke="rgba(11, 123, 207, 1)"></path><path d="M244.64 510.61L285.85 510.61L285.85 564.99L244.64 564.99z" fill="rgba(11, 123, 207, 1)"></path><path d="M1445.91 67.88a7.23 7.23 0 1 0-14.4-1.29z" stroke="rgba(11, 123, 207, 1)"></path><path d="M840.74 124.26L884.5 124.26L884.5 168.02L840.74 168.02z" stroke="rgba(11, 123, 207, 1)"></path><path d="M566.66 134.15a35.7 35.7 0 1 0-28-65.68z" fill="rgba(11, 123, 207, 1)"></path><path d="M494.24 521.02L518.43 521.02L518.43 545.21L494.24 545.21z" stroke="rgba(11, 123, 207, 1)"></path><path d="M1305.19 246.68L1341.23 246.68L1341.23 254.2L1305.19 254.2z" stroke="rgba(11, 123, 207, 1)"></path><path d="M47.64 364.85a55.52 55.52 0 1 0 71.6 84.88z" stroke="rgba(11, 123, 207, 1)"></path><path d="M90.15 69.2a42.7 42.7 0 1 0-45.9 72.02z" fill="rgba(11, 123, 207, 1)"></path><path d="M106.92 173.59 a37.61 37.61 0 1 0 75.22 0 a37.61 37.61 0 1 0 -75.22 0z" stroke="rgba(11, 123, 207, 1)"></path><path d="M390.59 19.86L404.47 19.86L404.47 39.65L390.59 39.65z" stroke="rgba(11, 123, 207, 1)"></path><path d="M527.99 281.28a31.63 31.63 0 1 0 33.72 53.53z" stroke="rgba(11, 123, 207, 1)"></path><path d="M221.08 364.38L252.08 364.38L252.08 416.48L221.08 416.48z" stroke="rgba(11, 123, 207, 1)"></path><path d="M882.56 121.66L933 121.66L933 172.1L882.56 172.1z" stroke="rgba(11, 123, 207, 1)"></path><path d="M486.22 270.53 a1.08 1.08 0 1 0 2.16 0 a1.08 1.08 0 1 0 -2.16 0z" fill="rgba(11, 123, 207, 1)"></path><path d="M1171.15 547.36L1211.77 547.36L1211.77 587.98L1171.15 587.98z" stroke="rgba(11, 123, 207, 1)"></path><path d="M913.33 482.59L936.5 482.59L936.5 505.76L913.33 505.76z" stroke="rgba(11, 123, 207, 1)"></path><path d="M1061.92 374.83a7.14 7.14 0 1 0-12.06 7.65z" fill="rgba(11, 123, 207, 1)"></path><path d="M1061.68 28.75L1074.16 28.75L1074.16 41.23L1061.68 41.23z" fill="rgba(11, 123, 207, 1)"></path><path d="M339.62 428.61 a18.61 18.61 0 1 0 37.22 0 a18.61 18.61 0 1 0 -37.22 0z" stroke="rgba(11, 123, 207, 1)"></path><path d="M1273.39 209.12L1308.96 209.12L1308.96 244.69L1273.39 244.69z" stroke="rgba(11, 123, 207, 1)"></path><path d="M1259.67 408.64a15.81 15.81 0 1 0-5.92-31.07z" stroke="rgba(11, 123, 207, 1)"></path><path d="M544.84 513.19L579.28 513.19L579.28 537.81L544.84 537.81z" fill="rgba(11, 123, 207, 1)"></path><path d="M460.87 279.71 a47.8 47.8 0 1 0 95.6 0 a47.8 47.8 0 1 0 -95.6 0z" stroke="rgba(11, 123, 207, 1)"></path><path d="M1363.38 59.18 a31.6 31.6 0 1 0 63.2 0 a31.6 31.6 0 1 0 -63.2 0z" stroke="rgba(11, 123, 207, 1)"></path><path d="M1408.18 327.27L1410.07 327.27L1410.07 337.91L1408.18 337.91z" stroke="rgba(11, 123, 207, 1)"></path><path d="M648.99 282.61a16.17 16.17 0 1 0-30.91-9.53z" stroke="rgba(11, 123, 207, 1)"></path><path d="M273.49-2.47a51.49 51.49 0 1 0 70.73 74.85z" fill="rgba(11, 123, 207, 1)"></path><path d="M980.33 415.41a46.31 46.31 0 1 0-71.23-59.21z" stroke="rgba(11, 123, 207, 1)"></path><path d="M151.2 162.69a29.55 29.55 0 1 0 17.59 56.42z" stroke="rgba(11, 123, 207, 1)"></path><path d="M1051.14 132.88L1079.72 132.88L1079.72 161.46L1051.14 161.46z" stroke="rgba(11, 123, 207, 1)"></path><path d="M938.68 139.86a14.3 14.3 0 1 0 5.25-28.11z" stroke="rgba(11, 123, 207, 1)"></path><path d="M1397.44 6.67L1409.77 6.67L1409.77 38.72L1397.44 38.72z" fill="rgba(11, 123, 207, 1)"></path></g><defs><mask id="SvgjsMask1826"><rect width="1440" height="560" fill="#ffffff"></rect></mask><radialGradient cx="50%" cy="50%" r="772.53" gradientUnits="userSpaceOnUse" id="SvgjsRadialGradient1827"><stop stop-color="rgba(14, 42, 71, 0.76)" offset="1"></stop><stop stop-color="rgba(0, 44, 62, 0.5)" offset="1"></stop></radialGradient></defs></svg>