<svg id="visual" viewBox="0 0 1200 1600" width="1200" height="1600" xmlns="http://www.w3.org/2000/svg" xmlns:xlink="http://www.w3.org/1999/xlink" version="1.1"><g stroke-width="1" stroke-linejoin="bevel"><path d="M610 845.7L594 741.3L463 759.3Z" fill="#0f4f6d" stroke="#0f4f6d"></path><path d="M463 759.3L420 843.7L610 845.7Z" fill="#479ad7" stroke="#479ad7"></path><path d="M744 615.8L581 596.8L594 741.3Z" fill="#07435d" stroke="#07435d"></path><path d="M594 741.3L581 596.8L463 759.3Z" fill="#002c3e" stroke="#002c3e"></path><path d="M610 845.7L757 840.7L594 741.3Z" fill="#2873a1" stroke="#2873a1"></path><path d="M413 546.8L314 726.3L463 759.3Z" fill="#479ad7" stroke="#479ad7"></path><path d="M463 759.3L314 726.3L420 843.7Z" fill="#03374d" stroke="#03374d"></path><path d="M440 1052.2L593 1042.2L420 843.7Z" fill="#2873a1" stroke="#2873a1"></path><path d="M420 843.7L593 1042.2L610 845.7Z" fill="#53a7ea" stroke="#53a7ea"></path><path d="M610 845.7L760 1051.2L757 840.7Z" fill="#03374d" stroke="#03374d"></path><path d="M757 840.7L780 732.3L594 741.3Z" fill="#2873a1" stroke="#2873a1"></path><path d="M287 903.7L440 1052.2L420 843.7Z" fill="#03374d" stroke="#03374d"></path><path d="M314 726.3L287 903.7L420 843.7Z" fill="#3280b2" stroke="#3280b2"></path><path d="M780 732.3L744 615.8L594 741.3Z" fill="#3c8dc5" stroke="#3c8dc5"></path><path d="M308 471.4L413 546.8L416 401.4Z" fill="#03374d" stroke="#03374d"></path><path d="M581 596.8L413 546.8L463 759.3Z" fill="#1f678f" stroke="#1f678f"></path><path d="M413 546.8L272 610.8L314 726.3Z" fill="#479ad7" stroke="#479ad7"></path><path d="M314 726.3L184 877.7L287 903.7Z" fill="#03374d" stroke="#03374d"></path><path d="M714 1197.6L760 1051.2L593 1042.2Z" fill="#0f4f6d" stroke="#0f4f6d"></path><path d="M593 1042.2L760 1051.2L610 845.7Z" fill="#175b7e" stroke="#175b7e"></path><path d="M757 840.7L878 734.3L780 732.3Z" fill="#2873a1" stroke="#2873a1"></path><path d="M287 903.7L295 1053.2L440 1052.2Z" fill="#3280b2" stroke="#3280b2"></path><path d="M440 1052.2L453 1172.6L593 1042.2Z" fill="#002c3e" stroke="#002c3e"></path><path d="M928 840.7L878 734.3L757 840.7Z" fill="#3c8dc5" stroke="#3c8dc5"></path><path d="M780 732.3L878 734.3L744 615.8Z" fill="#3280b2" stroke="#3280b2"></path><path d="M143 741.3L184 877.7L314 726.3Z" fill="#3c8dc5" stroke="#3c8dc5"></path><path d="M287 903.7L182 1049.2L295 1053.2Z" fill="#002c3e" stroke="#002c3e"></path><path d="M300 1151.6L453 1172.6L440 1052.2Z" fill="#3280b2" stroke="#3280b2"></path><path d="M882 1004.2L928 840.7L757 840.7Z" fill="#0f4f6d" stroke="#0f4f6d"></path><path d="M453 1172.6L610 1190.6L593 1042.2Z" fill="#479ad7" stroke="#479ad7"></path><path d="M272 610.8L143 741.3L314 726.3Z" fill="#0f4f6d" stroke="#0f4f6d"></path><path d="M930 1197.6L882 1004.2L760 1051.2Z" fill="#3280b2" stroke="#3280b2"></path><path d="M760 1051.2L882 1004.2L757 840.7Z" fill="#479ad7" stroke="#479ad7"></path><path d="M413 546.8L308 471.4L272 610.8Z" fill="#175b7e" stroke="#175b7e"></path><path d="M272 610.8L170 594.8L143 741.3Z" fill="#2873a1" stroke="#2873a1"></path><path d="M618 404.4L413 546.8L581 596.8Z" fill="#002c3e" stroke="#002c3e"></path><path d="M723 439.4L581 596.8L744 615.8Z" fill="#1f678f" stroke="#1f678f"></path><path d="M723 439.4L618 404.4L581 596.8Z" fill="#479ad7" stroke="#479ad7"></path><path d="M903 424.4L723 439.4L744 615.8Z" fill="#002c3e" stroke="#002c3e"></path><path d="M618 404.4L416 401.4L413 546.8Z" fill="#479ad7" stroke="#479ad7"></path><path d="M182 1049.2L300 1151.6L295 1053.2Z" fill="#3c8dc5" stroke="#3c8dc5"></path><path d="M295 1053.2L300 1151.6L440 1052.2Z" fill="#479ad7" stroke="#479ad7"></path><path d="M308 471.4L170 594.8L272 610.8Z" fill="#479ad7" stroke="#479ad7"></path><path d="M184 877.7L182 1049.2L287 903.7Z" fill="#2873a1" stroke="#2873a1"></path><path d="M0 983.2L182 1049.2L184 877.7Z" fill="#002c3e" stroke="#002c3e"></path><path d="M610 1190.6L714 1197.6L593 1042.2Z" fill="#2873a1" stroke="#2873a1"></path><path d="M1027 689.3L935 616.8L878 734.3Z" fill="#07435d" stroke="#07435d"></path><path d="M878 734.3L935 616.8L744 615.8Z" fill="#03374d" stroke="#03374d"></path><path d="M928 840.7L1027 689.3L878 734.3Z" fill="#0f4f6d" stroke="#0f4f6d"></path><path d="M935 616.8L903 424.4L744 615.8Z" fill="#53a7ea" stroke="#53a7ea"></path><path d="M1083 892.7L1027 689.3L928 840.7Z" fill="#3280b2" stroke="#3280b2"></path><path d="M629 1317.1L714 1197.6L610 1190.6Z" fill="#1f678f" stroke="#1f678f"></path><path d="M629 1317.1L732 1274.1L714 1197.6Z" fill="#3c8dc5" stroke="#3c8dc5"></path><path d="M714 1197.6L930 1197.6L760 1051.2Z" fill="#175b7e" stroke="#175b7e"></path><path d="M629 1317.1L610 1190.6L449 1329.1Z" fill="#3c8dc5" stroke="#3c8dc5"></path><path d="M182 1049.2L182 1179.6L300 1151.6Z" fill="#002c3e" stroke="#002c3e"></path><path d="M449 1329.1L610 1190.6L453 1172.6Z" fill="#479ad7" stroke="#479ad7"></path><path d="M0 1132.6L182 1179.6L182 1049.2Z" fill="#3280b2" stroke="#3280b2"></path><path d="M449 1329.1L453 1172.6L292 1331.1Z" fill="#07435d" stroke="#07435d"></path><path d="M618 404.4L481 280.9L416 401.4Z" fill="#002c3e" stroke="#002c3e"></path><path d="M169 286.9L122 440.4L308 471.4Z" fill="#002c3e" stroke="#002c3e"></path><path d="M0 556.8L0 714.3L170 594.8Z" fill="#1f678f" stroke="#1f678f"></path><path d="M568 254.9L481 280.9L618 404.4Z" fill="#03374d" stroke="#03374d"></path><path d="M1056 597.8L903 424.4L935 616.8Z" fill="#3280b2" stroke="#3280b2"></path><path d="M756 296.9L568 254.9L618 404.4Z" fill="#53a7ea" stroke="#53a7ea"></path><path d="M1043 1161.6L1029 995.2L882 1004.2Z" fill="#2873a1" stroke="#2873a1"></path><path d="M882 1004.2L1029 995.2L928 840.7Z" fill="#2873a1" stroke="#2873a1"></path><path d="M292 1331.1L453 1172.6L300 1151.6Z" fill="#479ad7" stroke="#479ad7"></path><path d="M0 714.3L0 856.7L143 741.3Z" fill="#3c8dc5" stroke="#3c8dc5"></path><path d="M143 741.3L0 856.7L184 877.7Z" fill="#1f678f" stroke="#1f678f"></path><path d="M122 440.4L170 594.8L308 471.4Z" fill="#2873a1" stroke="#2873a1"></path><path d="M170 594.8L0 714.3L143 741.3Z" fill="#002c3e" stroke="#002c3e"></path><path d="M756 296.9L618 404.4L723 439.4Z" fill="#0f4f6d" stroke="#0f4f6d"></path><path d="M287 274.9L308 471.4L416 401.4Z" fill="#1f678f" stroke="#1f678f"></path><path d="M903 424.4L756 296.9L723 439.4Z" fill="#53a7ea" stroke="#53a7ea"></path><path d="M1029 995.2L1083 892.7L928 840.7Z" fill="#1f678f" stroke="#1f678f"></path><path d="M732 1274.1L930 1197.6L714 1197.6Z" fill="#002c3e" stroke="#002c3e"></path><path d="M1200 1040.2L1200 896.7L1083 892.7Z" fill="#2873a1" stroke="#2873a1"></path><path d="M898 1344.1L930 1197.6L732 1274.1Z" fill="#1f678f" stroke="#1f678f"></path><path d="M1027 689.3L1056 597.8L935 616.8Z" fill="#479ad7" stroke="#479ad7"></path><path d="M1200 733.3L1056 597.8L1027 689.3Z" fill="#1f678f" stroke="#1f678f"></path><path d="M0 856.7L0 983.2L184 877.7Z" fill="#53a7ea" stroke="#53a7ea"></path><path d="M158 1317.1L292 1331.1L182 1179.6Z" fill="#3c8dc5" stroke="#3c8dc5"></path><path d="M182 1179.6L292 1331.1L300 1151.6Z" fill="#3c8dc5" stroke="#3c8dc5"></path><path d="M481 280.9L287 274.9L416 401.4Z" fill="#53a7ea" stroke="#53a7ea"></path><path d="M440 173.5L287 274.9L481 280.9Z" fill="#0f4f6d" stroke="#0f4f6d"></path><path d="M122 440.4L0 556.8L170 594.8Z" fill="#2873a1" stroke="#2873a1"></path><path d="M0 463.4L0 556.8L122 440.4Z" fill="#07435d" stroke="#07435d"></path><path d="M903 424.4L862 280.9L756 296.9Z" fill="#03374d" stroke="#03374d"></path><path d="M756 296.9L729 183.5L568 254.9Z" fill="#002c3e" stroke="#002c3e"></path><path d="M1033 400.4L862 280.9L903 424.4Z" fill="#0f4f6d" stroke="#0f4f6d"></path><path d="M292 1331.1L458 1418.5L449 1329.1Z" fill="#3280b2" stroke="#3280b2"></path><path d="M449 1329.1L458 1418.5L629 1317.1Z" fill="#0f4f6d" stroke="#0f4f6d"></path><path d="M751 1440.5L898 1344.1L732 1274.1Z" fill="#002c3e" stroke="#002c3e"></path><path d="M1027 1287.1L1043 1161.6L930 1197.6Z" fill="#0f4f6d" stroke="#0f4f6d"></path><path d="M930 1197.6L1043 1161.6L882 1004.2Z" fill="#175b7e" stroke="#175b7e"></path><path d="M0 983.2L0 1132.6L182 1049.2Z" fill="#479ad7" stroke="#479ad7"></path><path d="M287 274.9L169 286.9L308 471.4Z" fill="#3c8dc5" stroke="#3c8dc5"></path><path d="M0 290.9L0 463.4L122 440.4Z" fill="#07435d" stroke="#07435d"></path><path d="M634 161.5L440 173.5L568 254.9Z" fill="#53a7ea" stroke="#53a7ea"></path><path d="M568 254.9L440 173.5L481 280.9Z" fill="#479ad7" stroke="#479ad7"></path><path d="M287 274.9L159 148.5L169 286.9Z" fill="#03374d" stroke="#03374d"></path><path d="M0 1132.6L158 1317.1L182 1179.6Z" fill="#1f678f" stroke="#1f678f"></path><path d="M292 1331.1L284 1489.5L458 1418.5Z" fill="#03374d" stroke="#03374d"></path><path d="M1056 597.8L1033 400.4L903 424.4Z" fill="#2873a1" stroke="#2873a1"></path><path d="M913 171.5L729 183.5L862 280.9Z" fill="#3280b2" stroke="#3280b2"></path><path d="M862 280.9L729 183.5L756 296.9Z" fill="#479ad7" stroke="#479ad7"></path><path d="M729 183.5L634 161.5L568 254.9Z" fill="#0f4f6d" stroke="#0f4f6d"></path><path d="M751 1440.5L732 1274.1L629 1317.1Z" fill="#53a7ea" stroke="#53a7ea"></path><path d="M1200 896.7L1200 733.3L1083 892.7Z" fill="#175b7e" stroke="#175b7e"></path><path d="M1083 892.7L1200 733.3L1027 689.3Z" fill="#3c8dc5" stroke="#3c8dc5"></path><path d="M1056 597.8L1200 473.4L1033 400.4Z" fill="#3c8dc5" stroke="#3c8dc5"></path><path d="M1200 1040.2L1083 892.7L1029 995.2Z" fill="#07435d" stroke="#07435d"></path><path d="M567 1479.5L751 1440.5L629 1317.1Z" fill="#1f678f" stroke="#1f678f"></path><path d="M573 1600L567 1479.5L486 1600Z" fill="#07435d" stroke="#07435d"></path><path d="M458 1418.5L567 1479.5L629 1317.1Z" fill="#2873a1" stroke="#2873a1"></path><path d="M898 1344.1L1027 1287.1L930 1197.6Z" fill="#1f678f" stroke="#1f678f"></path><path d="M1043 1161.6L1200 1040.2L1029 995.2Z" fill="#0f4f6d" stroke="#0f4f6d"></path><path d="M1019 1475.5L1027 1287.1L898 1344.1Z" fill="#07435d" stroke="#07435d"></path><path d="M1200 733.3L1200 578.8L1056 597.8Z" fill="#1f678f" stroke="#1f678f"></path><path d="M1200 1173.6L1200 1040.2L1043 1161.6Z" fill="#3280b2" stroke="#3280b2"></path><path d="M473 0L306 120.5L440 173.5Z" fill="#175b7e" stroke="#175b7e"></path><path d="M440 173.5L306 120.5L287 274.9Z" fill="#2873a1" stroke="#2873a1"></path><path d="M169 286.9L0 290.9L122 440.4Z" fill="#53a7ea" stroke="#53a7ea"></path><path d="M161 1487.5L284 1489.5L292 1331.1Z" fill="#03374d" stroke="#03374d"></path><path d="M161 1487.5L292 1331.1L158 1317.1Z" fill="#0f4f6d" stroke="#0f4f6d"></path><path d="M1200 264.9L1043 271.9L1033 400.4Z" fill="#0f4f6d" stroke="#0f4f6d"></path><path d="M1033 400.4L1043 271.9L862 280.9Z" fill="#0f4f6d" stroke="#0f4f6d"></path><path d="M622 0L473 0L634 161.5Z" fill="#0f4f6d" stroke="#0f4f6d"></path><path d="M634 161.5L473 0L440 173.5Z" fill="#2873a1" stroke="#2873a1"></path><path d="M1043 271.9L913 171.5L862 280.9Z" fill="#07435d" stroke="#07435d"></path><path d="M159 148.5L0 290.9L169 286.9Z" fill="#0f4f6d" stroke="#0f4f6d"></path><path d="M1200 578.8L1200 473.4L1056 597.8Z" fill="#002c3e" stroke="#002c3e"></path><path d="M743 1600L896 1460.5L751 1440.5Z" fill="#2873a1" stroke="#2873a1"></path><path d="M751 1440.5L896 1460.5L898 1344.1Z" fill="#03374d" stroke="#03374d"></path><path d="M306 120.5L159 148.5L287 274.9Z" fill="#0f4f6d" stroke="#0f4f6d"></path><path d="M0 1132.6L0 1338.1L158 1317.1Z" fill="#2873a1" stroke="#2873a1"></path><path d="M1200 1333.1L1200 1173.6L1027 1287.1Z" fill="#3c8dc5" stroke="#3c8dc5"></path><path d="M1027 1287.1L1200 1173.6L1043 1161.6Z" fill="#53a7ea" stroke="#53a7ea"></path><path d="M0 1338.1L161 1487.5L158 1317.1Z" fill="#1f678f" stroke="#1f678f"></path><path d="M486 1600L567 1479.5L458 1418.5Z" fill="#3c8dc5" stroke="#3c8dc5"></path><path d="M567 1479.5L743 1600L751 1440.5Z" fill="#479ad7" stroke="#479ad7"></path><path d="M486 1600L458 1418.5L326 1600Z" fill="#07435d" stroke="#07435d"></path><path d="M326 1600L458 1418.5L284 1489.5Z" fill="#3280b2" stroke="#3280b2"></path><path d="M622 0L634 161.5L775 0Z" fill="#07435d" stroke="#07435d"></path><path d="M306 120.5L183 0L159 148.5Z" fill="#2873a1" stroke="#2873a1"></path><path d="M775 0L634 161.5L729 183.5Z" fill="#3c8dc5" stroke="#3c8dc5"></path><path d="M573 1600L743 1600L567 1479.5Z" fill="#175b7e" stroke="#175b7e"></path><path d="M156 1600L326 1600L284 1489.5Z" fill="#2873a1" stroke="#2873a1"></path><path d="M894 1600L1019 1475.5L896 1460.5Z" fill="#175b7e" stroke="#175b7e"></path><path d="M896 1460.5L1019 1475.5L898 1344.1Z" fill="#0f4f6d" stroke="#0f4f6d"></path><path d="M1043 271.9L1058 161.5L913 171.5Z" fill="#3c8dc5" stroke="#3c8dc5"></path><path d="M913 171.5L775 0L729 183.5Z" fill="#03374d" stroke="#03374d"></path><path d="M1200 264.9L1058 161.5L1043 271.9Z" fill="#07435d" stroke="#07435d"></path><path d="M473 0L298 0L306 120.5Z" fill="#0f4f6d" stroke="#0f4f6d"></path><path d="M159 148.5L0 155.5L0 290.9Z" fill="#3c8dc5" stroke="#3c8dc5"></path><path d="M885 0L775 0L913 171.5Z" fill="#3c8dc5" stroke="#3c8dc5"></path><path d="M0 0L0 155.5L159 148.5Z" fill="#479ad7" stroke="#479ad7"></path><path d="M1019 1475.5L1200 1333.1L1027 1287.1Z" fill="#1f678f" stroke="#1f678f"></path><path d="M1200 473.4L1200 264.9L1033 400.4Z" fill="#53a7ea" stroke="#53a7ea"></path><path d="M0 1338.1L0 1489.5L161 1487.5Z" fill="#175b7e" stroke="#175b7e"></path><path d="M161 1487.5L156 1600L284 1489.5Z" fill="#3c8dc5" stroke="#3c8dc5"></path><path d="M743 1600L894 1600L896 1460.5Z" fill="#002c3e" stroke="#002c3e"></path><path d="M1019 1475.5L1200 1460.5L1200 1333.1Z" fill="#07435d" stroke="#07435d"></path><path d="M1063 0L913 171.5L1058 161.5Z" fill="#175b7e" stroke="#175b7e"></path><path d="M1063 0L885 0L913 171.5Z" fill="#53a7ea" stroke="#53a7ea"></path><path d="M298 0L183 0L306 120.5Z" fill="#002c3e" stroke="#002c3e"></path><path d="M0 1489.5L156 1600L161 1487.5Z" fill="#07435d" stroke="#07435d"></path><path d="M1200 264.9L1200 182.5L1058 161.5Z" fill="#53a7ea" stroke="#53a7ea"></path><path d="M894 1600L1017 1600L1019 1475.5Z" fill="#3280b2" stroke="#3280b2"></path><path d="M1200 1600L1200 1460.5L1019 1475.5Z" fill="#175b7e" stroke="#175b7e"></path><path d="M0 1489.5L0 1600L156 1600Z" fill="#479ad7" stroke="#479ad7"></path><path d="M1200 0L1063 0L1058 161.5Z" fill="#1f678f" stroke="#1f678f"></path><path d="M183 0L0 0L159 148.5Z" fill="#53a7ea" stroke="#53a7ea"></path><path d="M1017 1600L1200 1600L1019 1475.5Z" fill="#3280b2" stroke="#3280b2"></path><path d="M1200 182.5L1200 0L1058 161.5Z" fill="#1f678f" stroke="#1f678f"></path></g></svg>